<svg width="40" height="40" viewBox="0 0 40 40" fill="none" xmlns="http://www.w3.org/2000/svg">
<path d="M16.25 5V3.4875C16.25 2.94 16.6425 2.5 17.1313 2.5H22.8688C23.3563 2.5 23.75 2.94 23.75 3.4875V5H27.7875C29.0125 5 30 5.9875 30 7.21125V35.2875C30 36.5125 29.0125 37.4987 27.7875 37.4987H12.2125C11.9219 37.4996 11.6341 37.443 11.3654 37.3323C11.0968 37.2215 10.8527 37.0588 10.6471 36.8534C10.4415 36.6481 10.2785 36.4042 10.1675 36.1356C10.0564 35.8671 9.99951 35.5793 10 35.2887V7.2125C10 5.98625 10.9875 5 12.2125 5H16.25Z" fill="#9B9B9B"/>
<path d="M30 7.5H10V35H30V7.5Z" fill="#86D72F"/>
<path d="M18.75 15.625V16.7875C18.75 17.175 19.075 17.5 19.4625 17.5H20.5375C20.925 17.5 21.25 17.175 21.25 16.775V15.625H22.4125C22.8 15.625 23.125 15.3 23.1125 14.9V13.8375C23.1125 13.6485 23.0374 13.4673 22.9038 13.3337C22.7702 13.2001 22.589 13.125 22.4 13.125H21.25V11.9625C21.25 11.575 20.925 11.25 20.525 11.25H19.4625C19.075 11.25 18.75 11.575 18.75 11.9625V13.125H17.5875C17.3985 13.125 17.2173 13.2001 17.0837 13.3337C16.9501 13.4673 16.875 13.6485 16.875 13.8375V14.9125C16.875 15.3 17.2 15.625 17.5875 15.625H18.75ZM22.4125 31.25H17.5875C17.3985 31.25 17.2173 31.1749 17.0837 31.0413C16.9501 30.9077 16.875 30.7265 16.875 30.5375V29.475C16.875 29.075 17.2 28.75 17.5875 28.75H22.4C22.8 28.75 23.1125 29.075 23.1125 29.4625V30.525C23.125 30.925 22.8 31.25 22.4125 31.25Z" fill="white"/>
</svg>
