<svg width="101" height="100" viewBox="0 0 101 100" fill="none" xmlns="http://www.w3.org/2000/svg">
<path fill-rule="evenodd" clip-rule="evenodd" d="M33.8592 2.77734C33.8593 2.0417 34.1515 1.33622 34.6716 0.815915C35.1916 0.295611 35.897 0.00305674 36.6326 0.00253906L64.3652 0.000976562C65.1011 0.00268242 65.8062 0.296047 66.3261 0.816769C66.8459 1.33749 67.1382 2.04309 67.1387 2.77891V9.6377H33.8592V2.77734ZM79.457 96.0279C79.3863 97.1094 78.9049 98.123 78.1113 98.8611C77.3177 99.5993 76.2721 100.006 75.1883 99.9986H25.4908C24.4073 99.9957 23.3651 99.583 22.5733 98.8433C21.7816 98.1037 21.299 97.0919 21.2225 96.0111L16.9697 33.8006H83.9959L79.458 96.0271L79.457 96.0279ZM90.5055 28.1662H10.4941V21.7209C10.4953 20.0115 11.1748 18.3724 12.3834 17.1635C13.5921 15.9546 15.231 15.2748 16.9404 15.2732L84.0584 15.2711C85.7677 15.2737 87.4061 15.9542 88.6144 17.1632C89.8227 18.3722 90.5021 20.011 90.5037 21.7203V28.1656L90.5055 28.1662ZM37.6168 85.1684C37.6168 85.5383 37.6897 85.9045 37.8312 86.2463C37.9728 86.5881 38.1803 86.8986 38.4418 87.1601C38.7034 87.4217 39.0139 87.6292 39.3557 87.7707C39.6974 87.9123 40.0637 87.9852 40.4336 87.9852C40.8035 87.9852 41.1698 87.9123 41.5115 87.7707C41.8533 87.6292 42.1638 87.4217 42.4254 87.1601C42.6869 86.8986 42.8944 86.5881 43.036 86.2463C43.1775 85.9045 43.2504 85.5383 43.2504 85.1684V45.667C43.2445 44.9241 42.9453 44.2137 42.418 43.6904C41.8907 43.1671 41.1779 42.8733 40.435 42.873C39.6922 42.8728 38.9792 43.1661 38.4516 43.689C37.9239 44.2119 37.6242 44.9222 37.6178 45.665V85.1684H37.6168ZM57.7145 85.1684C57.7145 85.9155 58.0113 86.6321 58.5396 87.1604C59.0679 87.6887 59.7845 87.9855 60.5316 87.9855C61.2788 87.9855 61.9954 87.6887 62.5237 87.1604C63.052 86.6321 63.3488 85.9155 63.3488 85.1684V45.667C63.3429 44.924 63.0437 44.2135 62.5163 43.6901C61.9889 43.1667 61.2761 42.8729 60.5331 42.8727C59.7901 42.8724 59.0771 43.1657 58.5493 43.6887C58.0216 44.2117 57.7219 44.9221 57.7154 45.665L57.7145 85.1684Z" fill="#FF0000" fill-opacity="0.25"/>
</svg>
